<?xml version="1.0" encoding="utf-8"?>
<!-- Generator: Adobe Illustrator 27.9.0, SVG Export Plug-In . SVG Version: 6.00 Build 0)  -->
<svg version="1.1" id="Layer_1" xmlns="http://www.w3.org/2000/svg" xmlns:xlink="http://www.w3.org/1999/xlink" x="0px" y="0px"
	 viewBox="0 0 1000 435.3" style="enable-background:new 0 0 1000 435.3;" xml:space="preserve">
<style type="text/css">
	.st0{fill:#E1251B;}
	.st1{fill:#101921;}
	.st2{fill:#FFFFFF;}
</style>
<g>
	<g>
		<path class="st1" d="M455.1,23.5c-1.9,0-3.7-1.2-4.4-3.1c-0.8-2.4,0.4-5,2.8-5.9c12.1-4.3,24.7-7.2,37.5-8.8
			c7.4-0.9,15-1.4,22.5-1.4c3.1,0,6.4,0.1,10.4,0.3c2.5,0.1,4.5,2.3,4.3,4.9c-0.1,2.5-2.3,4.5-4.9,4.3c-3.8-0.2-6.9-0.3-9.9-0.3
			c-7.1,0-14.3,0.4-21.3,1.3c-12.1,1.5-24.1,4.3-35.6,8.4C456.1,23.5,455.6,23.5,455.1,23.5z"/>
		<path class="st1" d="M447.7,46.5c-1.7,0-3.4-1-4.2-2.7c-1.1-2.3,0-5.1,2.3-6.1c15.1-6.9,31.1-11.5,47.6-13.5
			c15.6-1.9,31.5-1.6,47.3,1.1c2.5,0.4,4.2,2.8,3.8,5.3c-0.4,2.5-2.8,4.2-5.3,3.8c-14.9-2.6-29.9-2.9-44.6-1
			c-15.6,1.9-30.7,6.2-44.9,12.8C449,46.4,448.4,46.5,447.7,46.5z"/>
		<path class="st1" d="M446.6,67.9c-1.6,0-3.2-0.9-4.1-2.4c-1.2-2.2-0.4-5,1.8-6.3c5.2-2.9,10.9-5.5,16.7-7.8c2.4-0.9,5.1,0.2,6,2.6
			c0.9,2.4-0.2,5.1-2.6,6c-5.5,2.1-10.7,4.6-15.6,7.3C448.2,67.7,447.4,67.9,446.6,67.9z"/>
		<path class="st1" d="M479.9,54.9c-2.1,0-4-1.4-4.5-3.5c-0.6-2.5,0.9-5,3.4-5.6c5.7-1.4,11.4-2.5,16.8-3.2
			c15.7-2,31.8-1.3,47.5,2.1c2.5,0.5,4.1,3,3.5,5.5c-0.5,2.5-3,4.1-5.5,3.5c-14.8-3.2-29.8-3.8-44.5-1.9c-5.2,0.6-10.3,1.6-15.8,3
			C480.7,54.8,480.3,54.9,479.9,54.9z"/>
		<path class="st1" d="M378.1,242.1c-2.3,0-4.3-1.7-4.6-4.1c-2-17.2-2.8-30.2-3-35.1c0-0.7-0.1-1.4-0.1-2.1l0-1.1
			c-0.1-2.5,1.9-4.7,4.4-4.8c2.5-0.1,4.7,1.9,4.8,4.4l0,1.2c0,0.7,0,1.3,0.1,2c0.2,4.7,1,17.6,3,34.5c0.3,2.5-1.5,4.8-4.1,5.1
			C378.5,242.1,378.3,242.1,378.1,242.1z"/>
		<path class="st1" d="M448.8,88.2c-1.5,0-3-0.8-3.9-2.1c-1.4-2.2-0.7-5,1.4-6.4C462,69.6,479.4,63.3,498,61
			c15.2-1.9,30.7-1,45.7,2.8c2.5,0.6,4,3.1,3.3,5.6c-0.6,2.5-3.1,4-5.6,3.3c-13.9-3.5-28.3-4.4-42.3-2.6c-17.2,2.2-33.3,8-47.9,17.2
			C450.5,87.9,449.6,88.2,448.8,88.2z"/>
		<path class="st1" d="M397.8,242.1c-2.2,0-4.2-1.6-4.6-3.9c-3-18.3-4.1-32.3-4.5-37.5c-0.7-10.2-0.7-20.5,0-30.6
			c0.2-2.5,2.4-4.5,4.9-4.3c2.5,0.2,4.5,2.4,4.3,4.9c-0.7,9.7-0.7,19.6,0,29.4c0.3,5.1,1.5,18.8,4.4,36.6c0.4,2.5-1.3,4.9-3.8,5.3
			C398.3,242.1,398,242.1,397.8,242.1z"/>
		<path class="st1" d="M539.8,91.4c-0.4,0-0.8-0.1-1.2-0.2c-3.9-1-7.9-1.8-11.9-2.4c-2.5-0.3-4.3-2.7-3.9-5.2
			c0.4-2.5,2.7-4.3,5.2-3.9c4.4,0.6,8.8,1.5,13,2.6c2.5,0.7,3.9,3.2,3.3,5.7C543.7,90,541.8,91.4,539.8,91.4z"/>
		<path class="st1" d="M456.2,105.5c-1.5,0-2.9-0.7-3.8-2c-1.4-2.1-0.9-5,1.2-6.4c14.1-9.6,29.8-15.5,46.6-17.6
			c2.7-0.3,5.5-0.6,8.9-0.7c2.6-0.1,4.7,1.9,4.8,4.4c0.1,2.5-1.9,4.7-4.4,4.8c-3.2,0.1-5.8,0.3-8.2,0.6
			c-15.4,1.9-29.7,7.3-42.6,16.1C458,105.2,457.1,105.5,456.2,105.5z"/>
		<path class="st1" d="M412.8,210.5c-2.3,0-4.3-1.7-4.6-4.1c-0.4-3.5-0.7-6.3-0.8-8c-1.1-12.6-0.6-25.3,1.5-37.7
			c0.4-2.5,2.8-4.2,5.3-3.8c2.5,0.4,4.2,2.8,3.8,5.3c-1.9,11.6-2.4,23.5-1.4,35.4c0.1,1.6,0.4,4.2,0.8,7.6c0.3,2.5-1.5,4.8-4,5.1
			C413.1,210.5,412.9,210.5,412.8,210.5z"/>
		<path class="st1" d="M418.3,242.1c-2.1,0-4-1.5-4.5-3.6c-1-4.6-2-9.3-2.8-14c-0.5-2.5,1.2-4.9,3.7-5.4c2.5-0.5,4.9,1.2,5.4,3.7
			c0.8,4.5,1.8,9.1,2.8,13.6c0.6,2.5-1,5-3.5,5.5C419,242,418.6,242.1,418.3,242.1z"/>
		<path class="st1" d="M441,242.1c-1.9,0-3.7-1.2-4.4-3.1c-7.4-20.6-9.9-36.7-10.6-42.7c-1.8-14.4,0-29.2,5.3-42.7
			c0.9-2.4,3.6-3.6,6-2.6c2.4,0.9,3.6,3.6,2.6,6c-4.7,12.1-6.3,25.3-4.7,38.2c0.6,4.4,2.9,20.4,10.2,40.7c0.9,2.4-0.4,5-2.8,5.9
			C442,242,441.5,242.1,441,242.1z"/>
		<path class="st1" d="M614.4,204.4c-0.3,0-0.7,0-1-0.1c-6.9-1.6-12.1-6.2-16.3-14.5c-3.6-7-5.1-14.2-5.3-15.6c0-0.1,0-0.1,0-0.2
			c-0.2-1-0.3-2.1-0.5-3.1c-0.5-2.5,1.2-4.9,3.7-5.4c2.5-0.5,4.9,1.2,5.4,3.7c0.2,1.1,0.4,2.2,0.6,3.4c0.2,1.1,1.5,7.2,4.5,13.1
			c3.7,7.3,7.4,9,10.1,9.6c2.5,0.6,4,3.1,3.5,5.5C618.4,202.9,616.5,204.4,614.4,204.4z"/>
		<path class="st1" d="M463.7,123c-1.4,0-2.8-0.6-3.7-1.9c-1.5-2-1.1-4.9,0.9-6.5c12.2-9.1,26.6-14.9,41.7-16.8
			c10-1.2,20.1-0.8,30,1.4c2.5,0.6,4.1,3,3.5,5.5c-0.6,2.5-3,4.1-5.5,3.5c-8.8-2-17.9-2.4-26.8-1.3c-13.5,1.7-26.4,6.9-37.3,15
			C465.6,122.7,464.6,123,463.7,123z"/>
		<path class="st1" d="M618,223.5c-0.1,0-0.2,0-0.2,0c-15-0.8-30-10.9-37.3-25.4c-5-9.8-6.8-19.2-7.1-21c-0.7-4.9-1.9-9.5-3.7-13.9
			c-0.9-2.4,0.2-5.1,2.6-6c2.4-0.9,5.1,0.2,6,2.6c2,5.1,3.5,10.5,4.2,15.9c0.1,0.8,1.8,9.5,6.2,18.3c6.7,13.3,20,19.8,29.5,20.3
			c2.5,0.1,4.5,2.3,4.4,4.8C622.5,221.6,620.5,223.5,618,223.5z"/>
		<path class="st1" d="M460.8,242.1c-1.8,0-3.6-1.1-4.3-2.9c-8.5-21.6-11.3-38.7-12.1-45.1c-4.8-38.1,22.4-73,60.4-77.7
			c6.9-0.9,14-0.7,20.9,0.6c2.5,0.5,4.2,2.9,3.7,5.4c-0.5,2.5-2.9,4.2-5.4,3.7c-6-1.1-12.1-1.2-18.1-0.5
			c-33,4.1-56.5,34.4-52.4,67.4c0.6,4.7,3.2,21.7,11.5,42.9c0.9,2.4-0.2,5.1-2.6,6C462,242,461.4,242.1,460.8,242.1z"/>
		<path class="st1" d="M566.8,206.7c-1.7,0-3.4-1-4.2-2.7c-5.6-12.1-7.5-22.9-7.7-24.1c-1.2-8.9-5.1-17-11.3-23.4
			c-1.8-1.8-1.7-4.8,0.1-6.5c1.8-1.8,4.8-1.7,6.5,0.1c7.5,7.9,12.3,17.7,13.8,28.4c0.1,0.3,1.7,10.5,6.9,21.6
			c1.1,2.3,0.1,5.1-2.2,6.1C568.2,206.5,567.5,206.7,566.8,206.7z"/>
		<path class="st1" d="M617.7,240.9c-7.6,0-15.3-1.9-18.4-2.8c-10.7-3.1-19.4-8.9-26.6-17.7c-1.6-2-1.3-4.9,0.7-6.5
			c2-1.6,4.9-1.3,6.5,0.7c5.9,7.3,13.1,12.1,22,14.6c2.3,0.6,10.2,2.8,17.2,2.5c2.6-0.1,4.7,1.9,4.8,4.4c0.1,2.5-1.9,4.7-4.4,4.8
			C618.8,240.9,618.3,240.9,617.7,240.9z"/>
		<path class="st1" d="M481,242.1c-1.8,0-3.5-1-4.2-2.8c-10.5-23.9-13.4-43.8-13.8-47.6c-3.5-27.9,16.4-53.5,44.3-57
			c7.1-0.9,14.3-0.3,21.2,1.9c2.4,0.7,3.8,3.3,3.1,5.8c-0.7,2.4-3.3,3.8-5.8,3.1c-5.7-1.8-11.6-2.3-17.4-1.5
			c-22.9,2.9-39.2,23.8-36.3,46.7c0.4,3.5,3.2,22.3,13.1,45c1,2.3,0,5.1-2.4,6.1C482.2,241.9,481.6,242.1,481,242.1z"/>
		<path class="st1" d="M569.8,242.1c-1.1,0-2.2-0.4-3.1-1.2c-7.5-6.7-14.1-15.4-19.4-26c-8.3-16.5-10.6-31.8-10.7-32.5
			c-1.5-11.6-11.4-20.3-23-20.3c-1,0-1.9,0.1-2.9,0.2c-6.3,0.8-11.9,4.1-15.8,9.3c-1.5,2.1-4.4,2.5-6.5,1c-2.1-1.5-2.5-4.4-1-6.5
			c5.4-7.2,13.2-11.8,22-12.9c1.3-0.2,2.7-0.3,4-0.3c16.2,0,30.1,12.1,32.2,28.2c0.1,0.5,2.2,14.4,9.8,29.6
			c4.9,9.6,10.5,17.2,17.3,23.3c1.9,1.7,2.1,4.6,0.4,6.5C572.3,241.5,571,242.1,569.8,242.1z"/>
		<path class="st1" d="M501.4,242c-1.7,0-3.3-0.9-4.1-2.5c-12.6-25.3-15.7-47.6-16-50.1c-0.1-1.1-0.2-2.3-0.2-3.4
			c-0.1-2.6,2-4.7,4.5-4.7c0,0,0.1,0,0.1,0c2.5,0,4.6,2,4.6,4.5c0,0.8,0.1,1.7,0.2,2.5c0.3,2.3,3.2,23.2,15,47
			c1.1,2.3,0.3,5.1-2,6.3C502.8,241.9,502.1,242,501.4,242z"/>
		<path class="st1" d="M522.6,242.1c-1.6,0-3.1-0.8-4-2.3c-1.9-3.1-3.4-6-4.8-8.7c-11.4-22.8-14-43.1-14.1-44
			c-0.9-7.6,4.5-14.6,12.1-15.5c7.6-1,14.6,4.5,15.5,12c0,0.1,2.4,17.1,11.7,35.5c2.8,5.6,6,10.8,9.6,15.6c1.5,2,1.1,4.9-1,6.5
			c-2,1.5-4.9,1.1-6.5-1c-3.8-5.2-7.3-10.9-10.4-16.9c-10-19.9-12.5-37.7-12.6-38.5c-0.3-2.6-2.7-4.4-5.2-4.1
			c-2.6,0.3-4.4,2.7-4,5.2c0.1,0.8,2.5,19.6,13.2,41c1.3,2.5,2.7,5.2,4.5,8.2c1.3,2.2,0.6,5-1.6,6.3
			C524.2,241.9,523.4,242.1,522.6,242.1z"/>
	</g>
	<g>
		<rect x="2.4" y="282" class="st1" width="14.2" height="117.3"/>
		<rect x="38.4" y="315.5" class="st1" width="13.9" height="83.8"/>
		<rect x="38.3" y="285.4" class="st1" width="14.2" height="15.1"/>
		<polygon class="st1" points="104.1,386.4 103.3,386.4 79,315.5 64.1,315.5 94.4,399.3 112.5,399.3 142.8,315.5 128.4,315.5 		"/>
		<rect x="154.4" y="285.4" class="st1" width="14.2" height="15.1"/>
		<rect x="154.6" y="315.5" class="st1" width="13.9" height="83.8"/>
		<path class="st1" d="M246.7,317.8c-4.2-2.6-9.1-3.9-14.8-3.9c-5.9,0-11.2,1.4-15.8,4.3c-4.6,2.8-8.7,7-12.3,12.5h-0.8v-15.1h-13.4
			v83.8h14.2v-46.9c0-4.8,1-9.2,3.1-13.2c2.1-4,4.9-7.1,8.6-9.4c3.7-2.3,7.8-3.4,12.2-3.4c5.7,0,10.1,1.9,13.2,5.7
			c3.1,3.8,4.7,9.2,4.7,16.1v51.1h14.2v-52.8c0-6.7-1.1-12.5-3.4-17.4C254.1,324.2,250.8,320.4,246.7,317.8z"/>
		<path class="st1" d="M339.4,330.6h-0.8c-3.4-5.5-7.5-9.6-12.4-12.5c-4.9-2.9-10.4-4.3-16.4-4.3c-6.9,0-13.1,1.8-18.5,5.4
			c-5.4,3.6-9.6,8.6-12.7,15c-3,6.4-4.5,13.5-4.5,21.4c0,7.9,1.5,15.1,4.5,21.5c3,6.4,7.2,11.4,12.7,15c5.4,3.6,11.6,5.4,18.5,5.4
			c6,0,11.5-1.4,16.3-4.3c4.9-2.8,8.7-6.7,11.6-11.6h0.8v10.9c0,9.4-2,16.3-6.1,20.9c-4.1,4.5-10.4,6.8-19,6.8
			c-6.9,0-12.6-1.4-17.1-4.3c-4.5-2.9-7.4-6.9-8.9-12.2l-12.6,2.2c2,8.4,6.4,14.9,13.2,19.7c6.8,4.7,15.2,7.1,25.4,7.1
			c12.4,0,22.1-3.5,29-10.6c6.9-7.1,10.4-17,10.4-29.6v-77.1h-13.4V330.6z M335.3,371c-2.2,4.5-5.2,7.9-9.1,10.4
			c-3.9,2.5-8.4,3.7-13.6,3.7c-5,0-9.4-1.2-13-3.6c-3.6-2.4-6.4-5.8-8.4-10.2c-2-4.4-2.9-9.6-2.9-15.5c0-5.9,1-11.1,2.9-15.5
			c2-4.4,4.7-7.8,8.4-10.2c3.6-2.4,8-3.6,13-3.6c5.1,0,9.7,1.2,13.6,3.7c3.9,2.5,7,5.9,9.1,10.4c2.2,4.5,3.3,9.6,3.3,15.2
			C338.6,361.5,337.5,366.5,335.3,371z"/>
		<path class="st1" d="M427.7,351.7c-4.4-1.5-9.9-3-16.8-4.4c-4-0.8-7.2-1.5-9.6-2.2c-2.4-0.7-4.4-1.6-5.9-2.9
			c-1.6-1.2-2.3-2.8-2.3-4.7c0-2.3,1-4.1,3.1-5.3c2.1-1.2,4.9-1.8,8.5-1.8c4.4,0,8,0.8,11.1,2.5c3,1.7,5.1,4.2,6.2,7.7l20.9-2.9
			c-1.9-8.2-6-14.5-12.4-19.1c-6.4-4.6-14.8-6.9-25.3-6.9c-7.1,0-13.4,1.1-18.9,3.2c-5.4,2.1-9.6,5.1-12.7,9
			c-3,3.9-4.5,8.4-4.5,13.4c0,6.3,1.6,11.1,4.8,14.7c3.2,3.5,7,6.1,11.3,7.6c4.4,1.6,9.9,3,16.6,4.4c4.2,0.8,7.5,1.5,9.7,2.2
			c2.2,0.7,4.1,1.6,5.6,2.9c1.5,1.2,2.3,2.8,2.3,4.7c0,2.6-1.1,4.5-3.4,5.9c-2.2,1.3-5.4,2-9.4,2c-4.6,0-8.5-0.9-11.8-2.6
			c-3.3-1.7-5.7-4.6-7.1-8.5l-22.8,3c2.1,8.7,6.7,15.5,13.7,20.4c7,4.9,16.4,7.3,28,7.3c7.6,0,14.2-1.1,19.9-3.3
			c5.6-2.2,9.9-5.3,12.9-9.4c3-4.1,4.4-8.9,4.4-14.5c0-6.4-1.6-11.3-4.8-14.9C435.9,355.7,432.1,353.2,427.7,351.7z"/>
		<path class="st1" d="M517,317.2c-6.4-3.6-13.7-5.4-21.9-5.4c-8.3,0-15.7,1.9-22.2,5.7c-6.5,3.8-11.7,9.1-15.3,15.9
			c-3.7,6.8-5.5,14.5-5.5,23.1c0,8.7,1.8,16.5,5.5,23.2c3.7,6.8,8.9,12,15.6,15.8c6.7,3.8,14.4,5.7,23.1,5.7
			c9.4,0,17.5-2.3,24.2-6.9c6.8-4.6,11.5-11,14.3-19.3l-21.3-2.8c-1.8,2.8-4.2,4.9-7.1,6.5c-3,1.5-6.3,2.3-10.1,2.3
			c-4.5,0-8.3-1-11.5-2.9c-3.2-2-5.6-4.8-7.3-8.5c-0.9-2.1-1.6-4.5-2-7.1h61.2c0.6-2.9,0.8-5.5,0.8-7.9c0-8.4-1.8-15.8-5.4-22.3
			C528.4,325.8,523.4,320.8,517,317.2z M484.5,334c3.1-2,6.6-3,10.6-3c4.1,0,7.7,0.9,10.7,2.8c3,1.8,5.4,4.5,7,8
			c0.8,1.7,1.4,3.6,1.8,5.6h-38.8c0.4-1.7,0.9-3.3,1.5-4.8C479,338.9,481.4,336,484.5,334z"/>
		<path class="st1" d="M602.4,377.3c-3.1,2.2-6.9,3.3-11.2,3.3c-4,0-7.5-0.9-10.6-2.9c-3-1.9-5.4-4.7-7-8.3
			c-1.7-3.6-2.5-7.9-2.5-12.8c0-4.9,0.8-9.2,2.5-12.8c1.7-3.6,4-6.4,7-8.3c3-1.9,6.5-2.8,10.5-2.8c4.2,0,7.9,1.1,10.9,3.3
			c3,2.2,5.1,5.3,6.4,9.3l21.8-3c-2.1-9.5-6.7-16.9-13.7-22.3c-7-5.4-15.6-8-25.9-8c-8.5,0-16.1,1.9-22.8,5.7
			c-6.7,3.8-11.9,9.1-15.6,15.8c-3.7,6.8-5.5,14.5-5.5,23.2s1.8,16.5,5.5,23.2c3.7,6.8,8.9,12,15.6,15.8c6.7,3.8,14.4,5.7,23.1,5.7
			c6.8,0,13-1.2,18.5-3.7c5.5-2.5,10.1-5.9,13.7-10.5c3.6-4.5,6.2-9.9,7.6-16.2l-21.8-3C607.7,372,605.5,375.1,602.4,377.3z"/>
		<path class="st1" d="M696.9,359.8c0,3.8-0.8,7.2-2.3,10.3c-1.6,3.1-3.7,5.5-6.4,7.3c-2.7,1.8-5.6,2.7-8.9,2.7
			c-4.1,0-7.4-1.5-9.7-4.5c-2.3-3-3.5-7.3-3.5-12.7v-48.9h-24.5v55c0,6.6,1.1,12.3,3.4,17.3c2.3,4.9,5.6,8.7,9.8,11.3
			c4.2,2.6,9.2,3.9,14.9,3.9c5.8,0,11.1-1.4,16-4.3c4.9-2.8,9.1-7,12.7-12.3h0.8v14.6h22.1v-85.5h-24.5V359.8z"/>
		<path class="st1" d="M773.3,317.5c-4,2.4-7.7,6.1-11.1,11h-0.8v-14.6h-22v85.5h24.5v-40.7c0-4.7,0.8-8.7,2.5-12
			c1.7-3.3,4.2-5.8,7.5-7.6c3.3-1.8,7.2-2.7,11.6-2.7h9.7v-22.5h-7.9C782,313.9,777.3,315.1,773.3,317.5z"/>
		<rect x="806" y="281" class="st1" width="24" height="20.4"/>
		<rect x="806" y="313.9" class="st1" width="24.1" height="85.5"/>
		<path class="st1" d="M882.9,375.9c-1.3-1.5-2-3.8-2-7v-35.5h24.3v-19.4h-24.3v-22h-15.8l-8.2,22h-16.8v19.4h16.3v39.4
			c0,8.8,2.1,15.5,6.3,19.9c4.2,4.5,10.4,6.7,18.7,6.7H906v-21.3h-16.8C886.3,378.1,884.2,377.3,882.9,375.9z"/>
		<polygon class="st1" points="973.9,313.9 954.4,378.7 953.6,378.7 934,313.9 909.2,313.9 936.7,399.3 948,399.3 937.3,432.9 
			960,432.9 998.2,313.9 		"/>
	</g>
</g>
</svg>
