<?xml version="1.0" encoding="utf-8"?>
<!-- Generator: Adobe Illustrator 27.9.0, SVG Export Plug-In . SVG Version: 6.00 Build 0)  -->
<svg version="1.1" id="Layer_1" xmlns="http://www.w3.org/2000/svg" xmlns:xlink="http://www.w3.org/1999/xlink" x="0px" y="0px"
	 viewBox="0 0 1000 170" style="enable-background:new 0 0 1000 170;" xml:space="preserve">
<style type="text/css">
	.st0{fill:#E1251B;}
	.st1{fill:#101921;}
	.st2{fill:#FFFFFF;}
</style>
<g>
	<g>
		<path class="st0" d="M51.2,14.3c-1.1,0-2.1-0.7-2.5-1.8c-0.5-1.4,0.2-2.9,1.6-3.4c7-2.5,14.4-4.2,21.8-5.1
			c4.3-0.5,8.7-0.8,13.1-0.8c1.8,0,3.7,0.1,6.1,0.2c1.5,0.1,2.6,1.4,2.5,2.8c-0.1,1.5-1.4,2.6-2.8,2.5c-2.2-0.1-4-0.2-5.7-0.2
			c-4.1,0-8.3,0.3-12.4,0.8c-7,0.9-14,2.5-20.7,4.9C51.8,14.2,51.5,14.3,51.2,14.3z"/>
		<path class="st0" d="M47,27.6c-1,0-2-0.6-2.4-1.6c-0.6-1.3,0-2.9,1.3-3.6c8.8-4,18.1-6.7,27.7-7.9c9-1.1,18.3-0.9,27.5,0.6
			c1.5,0.3,2.4,1.6,2.2,3.1c-0.3,1.5-1.6,2.4-3.1,2.2c-8.7-1.5-17.4-1.7-25.9-0.6c-9.1,1.1-17.8,3.6-26.1,7.4
			C47.7,27.5,47.3,27.6,47,27.6z"/>
		<path class="st0" d="M46.3,40c-0.9,0-1.9-0.5-2.4-1.4c-0.7-1.3-0.2-2.9,1.1-3.6c3.1-1.7,6.3-3.2,9.7-4.5c1.4-0.5,2.9,0.1,3.5,1.5
			c0.5,1.4-0.1,2.9-1.5,3.5c-3.2,1.2-6.2,2.7-9.1,4.2C47.2,39.9,46.8,40,46.3,40z"/>
		<path class="st0" d="M65.7,32.5c-1.2,0-2.3-0.8-2.6-2c-0.4-1.4,0.5-2.9,2-3.3c3.3-0.8,6.6-1.4,9.8-1.8c9.1-1.1,18.5-0.8,27.6,1.2
			c1.4,0.3,2.4,1.7,2.1,3.2c-0.3,1.4-1.7,2.4-3.2,2.1c-8.6-1.8-17.3-2.2-25.8-1.1c-3,0.4-6,0.9-9.2,1.7
			C66.1,32.4,65.9,32.5,65.7,32.5z"/>
		<path class="st0" d="M6.5,141.3c-1.3,0-2.5-1-2.7-2.4c-1.2-10-1.6-17.6-1.8-20.4c0-0.4,0-0.8-0.1-1.2l0-0.7
			c-0.1-1.5,1.1-2.7,2.6-2.8c1.5-0.1,2.7,1.1,2.8,2.6l0,0.7c0,0.4,0,0.8,0,1.1c0.1,2.8,0.6,10.2,1.7,20c0.2,1.5-0.9,2.8-2.4,3
			C6.7,141.3,6.6,141.3,6.5,141.3z"/>
		<path class="st0" d="M47.6,51.8c-0.9,0-1.8-0.4-2.3-1.2c-0.8-1.3-0.4-2.9,0.8-3.7c9.1-5.8,19.2-9.5,30-10.8
			c8.8-1.1,17.8-0.6,26.6,1.6c1.4,0.4,2.3,1.8,1.9,3.3c-0.4,1.4-1.8,2.3-3.3,1.9c-8.1-2-16.4-2.5-24.6-1.5c-10,1.2-19.4,4.6-27.8,10
			C48.6,51.7,48.1,51.8,47.6,51.8z"/>
		<path class="st0" d="M17.9,141.3c-1.3,0-2.4-0.9-2.6-2.3c-1.7-10.6-2.4-18.8-2.6-21.8c-0.4-5.9-0.4-11.9,0-17.8
			c0.1-1.5,1.4-2.6,2.9-2.5c1.5,0.1,2.6,1.4,2.5,2.9c-0.4,5.7-0.4,11.4,0,17.1c0.2,2.9,0.8,10.9,2.6,21.3c0.2,1.5-0.8,2.8-2.2,3.1
			C18.2,141.2,18.1,141.3,17.9,141.3z"/>
		<path class="st0" d="M100.4,53.7c-0.2,0-0.5,0-0.7-0.1c-2.2-0.6-4.6-1.1-6.9-1.4c-1.5-0.2-2.5-1.6-2.3-3c0.2-1.5,1.6-2.5,3-2.3
			c2.6,0.4,5.1,0.9,7.6,1.5c1.4,0.4,2.3,1.9,1.9,3.3C102.7,52.9,101.6,53.7,100.4,53.7z"/>
		<path class="st0" d="M51.9,61.9c-0.9,0-1.7-0.4-2.2-1.2c-0.8-1.2-0.5-2.9,0.7-3.7c8.2-5.6,17.3-9,27.1-10.2
			c1.5-0.2,3.2-0.3,5.2-0.4c1.5-0.1,2.7,1.1,2.8,2.6s-1.1,2.7-2.6,2.8c-1.8,0.1-3.3,0.2-4.7,0.4c-9,1.1-17.3,4.3-24.7,9.3
			C53,61.7,52.4,61.9,51.9,61.9z"/>
		<path class="st0" d="M26.6,122.9c-1.3,0-2.5-1-2.7-2.4c-0.3-2.1-0.4-3.7-0.5-4.6c-0.6-7.3-0.3-14.7,0.9-21.9
			c0.2-1.5,1.6-2.5,3.1-2.2c1.5,0.2,2.5,1.6,2.2,3.1c-1.1,6.7-1.4,13.7-0.8,20.5c0.1,0.9,0.2,2.5,0.5,4.4c0.2,1.5-0.9,2.8-2.3,3
			C26.8,122.9,26.7,122.9,26.6,122.9z"/>
		<path class="st0" d="M29.9,141.3c-1.2,0-2.3-0.8-2.6-2.1c-0.6-2.7-1.2-5.4-1.7-8.1c-0.3-1.5,0.7-2.9,2.2-3.1
			c1.5-0.3,2.9,0.7,3.1,2.2c0.5,2.6,1,5.3,1.6,7.9c0.3,1.4-0.6,2.9-2,3.2C30.2,141.2,30,141.3,29.9,141.3z"/>
		<path class="st0" d="M43,141.3c-1.1,0-2.1-0.7-2.5-1.8c-4.3-12-5.7-21.3-6.2-24.8c-1-8.4,0-17,3.1-24.8c0.5-1.4,2.1-2.1,3.5-1.5
			c1.4,0.5,2.1,2.1,1.5,3.5c-2.7,7-3.7,14.7-2.7,22.2c0.3,2.6,1.7,11.9,5.9,23.7c0.5,1.4-0.2,2.9-1.6,3.4
			C43.7,141.2,43.3,141.3,43,141.3z"/>
		<path class="st0" d="M143.8,119.3c-0.2,0-0.4,0-0.6-0.1c-4-0.9-7-3.6-9.5-8.4c-2.1-4.1-2.9-8.3-3.1-9.1c0,0,0-0.1,0-0.1
			c-0.1-0.6-0.2-1.2-0.3-1.8c-0.3-1.5,0.7-2.9,2.1-3.1c1.5-0.3,2.9,0.7,3.1,2.1c0.1,0.6,0.2,1.3,0.3,2c0.1,0.6,0.9,4.2,2.6,7.6
			c2.2,4.3,4.3,5.2,5.9,5.6c1.4,0.3,2.3,1.8,2,3.2C146.1,118.5,145,119.3,143.8,119.3z"/>
		<path class="st0" d="M56.2,72.1c-0.8,0-1.6-0.4-2.2-1.1c-0.9-1.2-0.6-2.9,0.5-3.8c7.1-5.3,15.5-8.7,24.2-9.8
			c5.8-0.7,11.7-0.5,17.4,0.8c1.4,0.3,2.4,1.8,2,3.2s-1.8,2.4-3.2,2c-5.1-1.1-10.4-1.4-15.6-0.7c-7.8,1-15.3,4-21.7,8.7
			C57.3,71.9,56.8,72.1,56.2,72.1z"/>
		<path class="st0" d="M145.9,130.5c0,0-0.1,0-0.1,0c-8.7-0.4-17.5-6.4-21.7-14.7c-2.9-5.7-3.9-11.2-4.1-12.2
			c-0.4-2.8-1.1-5.5-2.1-8.1c-0.5-1.4,0.1-2.9,1.5-3.5c1.4-0.5,2.9,0.1,3.5,1.5c1.2,3,2,6.1,2.5,9.2c0.1,0.5,1,5.5,3.6,10.6
			c3.9,7.7,11.6,11.5,17.2,11.8c1.5,0.1,2.6,1.3,2.5,2.8C148.5,129.4,147.3,130.5,145.9,130.5z"/>
		<path class="st0" d="M54.6,141.3c-1.1,0-2.1-0.6-2.5-1.7c-4.9-12.5-6.6-22.5-7-26.2c-2.8-22.1,13-42.4,35.1-45.2
			c4-0.5,8.1-0.4,12.1,0.3c1.5,0.3,2.4,1.7,2.2,3.1c-0.3,1.5-1.7,2.4-3.1,2.2c-3.5-0.6-7-0.7-10.5-0.3c-19.2,2.4-32.9,20-30.5,39.2
			c0.3,2.7,1.8,12.6,6.7,24.9c0.5,1.4-0.1,2.9-1.5,3.5C55.2,141.2,54.9,141.3,54.6,141.3z"/>
		<path class="st0" d="M116.2,120.7c-1,0-2-0.6-2.4-1.5c-3.3-7-4.4-13.3-4.5-14c-0.7-5.2-3-9.9-6.6-13.6c-1-1.1-1-2.8,0.1-3.8
			c1.1-1,2.8-1,3.8,0.1c4.4,4.6,7.2,10.3,8,16.5c0,0.2,1,6.1,4,12.5c0.6,1.3,0,2.9-1.3,3.6C116.9,120.6,116.6,120.7,116.2,120.7z"/>
		<path class="st0" d="M145.7,140.6c-4.4,0-8.9-1.1-10.7-1.6c-6.2-1.8-11.3-5.1-15.5-10.3c-0.9-1.2-0.8-2.8,0.4-3.8
			c1.2-0.9,2.8-0.8,3.8,0.4c3.5,4.3,7.6,7,12.8,8.5c1.3,0.4,5.9,1.6,10,1.4c1.5-0.1,2.7,1.1,2.8,2.6c0.1,1.5-1.1,2.7-2.6,2.8
			C146.4,140.6,146.1,140.6,145.7,140.6z"/>
		<path class="st0" d="M66.3,141.3c-1,0-2-0.6-2.5-1.6c-6.1-13.9-7.8-25.5-8-27.7c-2-16.2,9.5-31.1,25.8-33.1
			c4.1-0.5,8.3-0.2,12.3,1.1c1.4,0.4,2.2,1.9,1.8,3.4c-0.4,1.4-1.9,2.2-3.4,1.8c-3.3-1-6.7-1.3-10.1-0.9
			C68.9,85.9,59.4,98,61.1,111.3c0.3,2.1,1.8,13,7.6,26.2c0.6,1.4,0,2.9-1.4,3.5C67,141.2,66.6,141.3,66.3,141.3z"/>
		<path class="st0" d="M117.9,141.3c-0.6,0-1.3-0.2-1.8-0.7c-4.4-3.9-8.2-9-11.3-15.1c-4.8-9.6-6.2-18.5-6.2-18.9
			c-0.9-6.7-6.6-11.8-13.4-11.8c-0.6,0-1.1,0-1.7,0.1c-3.7,0.5-6.9,2.4-9.2,5.4c-0.9,1.2-2.6,1.4-3.8,0.6s-1.4-2.6-0.6-3.8
			c3.1-4.2,7.7-6.9,12.8-7.5c0.8-0.1,1.6-0.1,2.3-0.1c9.4,0,17.5,7.1,18.7,16.4c0,0.3,1.3,8.4,5.7,17.2c2.8,5.6,6.1,10,10,13.5
			c1.1,1,1.2,2.7,0.2,3.8C119.4,141,118.6,141.3,117.9,141.3z"/>
		<path class="st0" d="M78.1,141.2c-1,0-1.9-0.5-2.4-1.5c-7.3-14.7-9.1-27.7-9.3-29.1c-0.1-0.6-0.1-1.3-0.1-2c0-1.5,1.1-2.7,2.6-2.7
			c0,0,0,0,0.1,0c1.5,0,2.7,1.2,2.7,2.6c0,0.5,0,1,0.1,1.4c0.2,1.3,1.8,13.5,8.7,27.3c0.7,1.3,0.1,3-1.2,3.6
			C79,141.1,78.5,141.2,78.1,141.2z"/>
		<path class="st0" d="M90.5,141.3c-0.9,0-1.8-0.5-2.3-1.3c-1.1-1.8-2-3.5-2.8-5.1c-6.6-13.3-8.1-25.1-8.2-25.6
			c-0.6-4.4,2.6-8.5,7-9c4.4-0.6,8.5,2.6,9,7c0,0.1,1.4,9.9,6.8,20.6c1.6,3.2,3.5,6.3,5.6,9c0.9,1.2,0.6,2.9-0.6,3.8
			c-1.2,0.9-2.9,0.6-3.8-0.6c-2.2-3-4.3-6.3-6-9.8c-5.8-11.5-7.3-21.9-7.3-22.4c-0.2-1.5-1.5-2.6-3-2.4c-1.5,0.2-2.5,1.5-2.4,3
			c0.1,0.5,1.5,11.4,7.7,23.8c0.7,1.5,1.6,3,2.6,4.7c0.8,1.3,0.3,2.9-0.9,3.7C91.4,141.1,91,141.3,90.5,141.3z"/>
	</g>
	<g>
		<rect x="194.3" y="46.2" class="st1" width="11.5" height="94.7"/>
		<rect x="223.4" y="73.2" class="st1" width="11.2" height="67.6"/>
		<rect x="223.3" y="48.9" class="st1" width="11.5" height="12.2"/>
		<polygon class="st1" points="276.4,130.4 275.8,130.4 256.2,73.2 244.1,73.2 268.6,140.9 283.2,140.9 307.7,73.2 296.1,73.2 		"/>
		<rect x="317" y="48.9" class="st1" width="11.5" height="12.2"/>
		<rect x="317.2" y="73.2" class="st1" width="11.2" height="67.6"/>
		<path class="st1" d="M391.5,75.1c-3.4-2.1-7.4-3.2-12-3.2c-4.8,0-9,1.2-12.8,3.5c-3.7,2.3-7.1,5.7-9.9,10.1h-0.7V73.2h-10.8v67.6
			h11.5V103c0-3.9,0.8-7.4,2.5-10.6c1.7-3.2,4-5.7,7-7.6c3-1.8,6.3-2.8,9.9-2.8c4.6,0,8.2,1.5,10.7,4.6c2.5,3.1,3.8,7.4,3.8,13v41.3
			h11.5V98.2c0-5.4-0.9-10.1-2.8-14.1C397.5,80.2,394.9,77.2,391.5,75.1z"/>
		<path class="st1" d="M466.3,85.4h-0.7c-2.7-4.4-6-7.8-10-10.1c-4-2.3-8.4-3.5-13.3-3.5c-5.6,0-10.6,1.5-14.9,4.4
			c-4.4,2.9-7.8,7-10.2,12.1c-2.4,5.1-3.7,10.9-3.7,17.3c0,6.4,1.2,12.2,3.7,17.3c2.4,5.1,5.8,9.2,10.2,12.1
			c4.4,2.9,9.4,4.4,14.9,4.4c4.9,0,9.3-1.1,13.2-3.4c3.9-2.3,7.1-5.4,9.4-9.4h0.7v8.8c0,7.6-1.6,13.2-4.9,16.8
			c-3.3,3.7-8.4,5.5-15.4,5.5c-5.6,0-10.2-1.2-13.8-3.4c-3.6-2.3-6-5.6-7.2-9.8l-10.1,1.8c1.6,6.8,5.2,12.1,10.6,15.9
			c5.5,3.8,12.3,5.7,20.5,5.7c10,0,17.8-2.9,23.4-8.6c5.6-5.7,8.4-13.7,8.4-23.9V73.2h-10.8V85.4z M463,118
			c-1.8,3.6-4.2,6.4-7.4,8.4c-3.2,2-6.8,3-11,3c-4.1,0-7.6-1-10.5-2.9c-2.9-1.9-5.2-4.7-6.8-8.2c-1.6-3.6-2.4-7.7-2.4-12.5
			c0-4.8,0.8-8.9,2.4-12.5c1.6-3.6,3.8-6.3,6.8-8.2c2.9-1.9,6.4-2.9,10.5-2.9c4.1,0,7.8,1,11,3c3.2,2,5.6,4.8,7.4,8.4
			s2.6,7.7,2.6,12.3C465.7,110.3,464.8,114.4,463,118z"/>
		<path class="st1" d="M537.6,102.4c-3.5-1.2-8-2.4-13.5-3.6c-3.2-0.6-5.8-1.2-7.8-1.8c-1.9-0.5-3.5-1.3-4.8-2.3
			c-1.3-1-1.9-2.3-1.9-3.8c0-1.9,0.8-3.3,2.5-4.3c1.7-0.9,3.9-1.4,6.8-1.4c3.5,0,6.5,0.7,8.9,2c2.4,1.4,4.1,3.4,5,6.2l16.9-2.3
			c-1.5-6.6-4.9-11.7-10-15.4c-5.1-3.7-11.9-5.5-20.4-5.5c-5.8,0-10.8,0.9-15.2,2.6c-4.4,1.7-7.8,4.1-10.2,7.3
			c-2.4,3.2-3.7,6.8-3.7,10.8c0,5,1.3,9,3.9,11.8c2.6,2.8,5.6,4.9,9.1,6.2c3.5,1.3,8,2.4,13.4,3.5c3.4,0.6,6,1.2,7.8,1.8
			c1.8,0.5,3.3,1.3,4.5,2.3c1.2,1,1.8,2.3,1.8,3.8c0,2.1-0.9,3.7-2.7,4.7c-1.8,1.1-4.3,1.6-7.6,1.6c-3.7,0-6.9-0.7-9.5-2.1
			c-2.7-1.4-4.6-3.7-5.7-6.8l-18.4,2.4c1.7,7,5.4,12.5,11.1,16.4c5.7,3.9,13.2,5.9,22.6,5.9c6.1,0,11.5-0.9,16-2.6
			c4.6-1.8,8-4.3,10.4-7.6c2.4-3.3,3.6-7.2,3.6-11.7c0-5.1-1.3-9.1-3.9-12C544.2,105.6,541.1,103.6,537.6,102.4z"/>
		<path class="st1" d="M609.6,74.6c-5.2-2.9-11.1-4.3-17.7-4.3c-6.7,0-12.6,1.5-17.9,4.6c-5.3,3.1-9.4,7.3-12.4,12.8
			c-3,5.5-4.5,11.7-4.5,18.7c0,7,1.5,13.3,4.5,18.7c3,5.5,7.2,9.7,12.6,12.8c5.4,3.1,11.6,4.6,18.7,4.6c7.6,0,14.1-1.8,19.5-5.5
			c5.5-3.7,9.3-8.9,11.6-15.6l-17.2-2.3c-1.4,2.3-3.4,4-5.7,5.2c-2.4,1.2-5.1,1.8-8.2,1.8c-3.6,0-6.7-0.8-9.3-2.4
			c-2.6-1.6-4.5-3.9-5.9-6.9c-0.8-1.7-1.3-3.6-1.6-5.7h49.4c0.4-2.3,0.7-4.5,0.7-6.4c0-6.8-1.5-12.8-4.4-18
			C618.9,81.5,614.8,77.5,609.6,74.6z M583.4,88.1c2.5-1.6,5.3-2.4,8.6-2.4c3.3,0,6.2,0.7,8.7,2.2c2.4,1.5,4.3,3.7,5.7,6.5
			c0.7,1.4,1.2,2.9,1.5,4.5h-31.3c0.3-1.4,0.7-2.7,1.2-3.9C579,92.1,580.9,89.7,583.4,88.1z"/>
		<path class="st1" d="M678.5,123.1c-2.5,1.8-5.5,2.6-9.1,2.6c-3.2,0-6.1-0.8-8.5-2.3c-2.4-1.5-4.3-3.8-5.7-6.7
			c-1.4-2.9-2-6.4-2-10.3c0-4,0.7-7.4,2-10.3c1.4-2.9,3.2-5.2,5.6-6.7c2.4-1.5,5.2-2.3,8.5-2.3c3.4,0,6.4,0.9,8.8,2.6
			c2.4,1.8,4.1,4.3,5.1,7.5l17.6-2.4c-1.7-7.7-5.4-13.7-11-18c-5.6-4.3-12.6-6.5-20.9-6.5c-6.9,0-13,1.5-18.4,4.6
			s-9.6,7.3-12.6,12.8c-3,5.5-4.5,11.7-4.5,18.7c0,7,1.5,13.3,4.5,18.7c3,5.5,7.2,9.7,12.6,12.8c5.4,3.1,11.6,4.6,18.7,4.6
			c5.5,0,10.5-1,14.9-3c4.5-2,8.2-4.8,11.1-8.5c2.9-3.7,5-8,6.2-13.1l-17.6-2.4C682.8,118.8,681.1,121.3,678.5,123.1z"/>
		<path class="st1" d="M754.8,108.9c0,3.1-0.6,5.8-1.9,8.3c-1.3,2.5-3,4.4-5.1,5.9c-2.2,1.4-4.6,2.2-7.2,2.2c-3.3,0-6-1.2-7.8-3.7
			c-1.9-2.4-2.8-5.9-2.8-10.3V71.9h-19.7v44.4c0,5.3,0.9,10,2.8,13.9c1.8,4,4.5,7,7.9,9.1c3.4,2.1,7.4,3.2,12,3.2
			c4.7,0,9-1.2,12.9-3.5c3.9-2.3,7.3-5.6,10.2-9.9h0.7v11.8h17.9v-69h-19.7V108.9z"/>
		<path class="st1" d="M816.5,74.8c-3.2,1.9-6.2,4.9-8.9,8.9h-0.7V71.9h-17.7v69h19.7V108c0-3.8,0.7-7,2-9.7c1.4-2.7,3.4-4.7,6-6.2
			c2.7-1.4,5.8-2.2,9.4-2.2h7.8V71.9h-6.4C823.5,71.9,819.7,72.8,816.5,74.8z"/>
		<rect x="842.9" y="45.4" class="st1" width="19.3" height="16.5"/>
		<rect x="842.9" y="71.9" class="st1" width="19.5" height="69"/>
		<path class="st1" d="M904.9,121.9c-1.1-1.2-1.6-3.1-1.6-5.7V87.6h19.6V71.9h-19.6V54.2h-12.7L884,71.9h-13.5v15.7h13.1v31.8
			c0,7.1,1.7,12.5,5.1,16.1c3.4,3.6,8.4,5.4,15.1,5.4h19.9v-17.2h-13.5C907.7,123.7,906,123.1,904.9,121.9z"/>
		<polygon class="st1" points="978.4,71.9 962.7,124.2 962,124.2 946.2,71.9 926.2,71.9 948.4,140.9 957.5,140.9 948.9,167.9 
			967.2,167.9 998,71.9 		"/>
	</g>
</g>
</svg>
