<?xml version="1.0" encoding="utf-8"?>
<!-- Generator: Adobe Illustrator 27.9.0, SVG Export Plug-In . SVG Version: 6.00 Build 0)  -->
<svg version="1.1" id="Layer_1" xmlns="http://www.w3.org/2000/svg" xmlns:xlink="http://www.w3.org/1999/xlink" x="0px" y="0px"
	 viewBox="0 0 800 748.4" style="enable-background:new 0 0 800 748.4;" xml:space="preserve">
<style type="text/css">
	.st0{fill:#E1251B;}
	.st1{fill:#101921;}
	.st2{fill:#FFFFFF;}
</style>
<g>
	<path class="st0" d="M270.4,66.8c-5.9,0-11.4-3.7-13.4-9.5c-2.6-7.4,1.3-15.6,8.7-18.2C303.1,26,342,16.9,381.4,11.9
		c22.9-2.9,46.2-4.3,69.3-4.3c9.6,0,19.9,0.3,32.1,1.1c7.9,0.5,13.9,7.2,13.4,15.1c-0.5,7.9-7.2,13.8-15.1,13.4
		c-11.7-0.7-21.4-1-30.5-1c-21.9,0-44,1.4-65.8,4.1c-37.4,4.7-74.3,13.4-109.8,25.8C273.5,66.6,271.9,66.8,270.4,66.8z"/>
	<path class="st0" d="M247.7,137.7c-5.4,0-10.6-3.1-13-8.3c-3.3-7.2-0.2-15.6,7-18.9c46.4-21.3,95.8-35.4,146.8-41.8
		c48-6,97.1-5,145.9,3.4c7.8,1.3,13,8.7,11.6,16.5s-8.7,13-16.5,11.6c-46-7.9-92.3-8.8-137.5-3.2c-48,6-94.6,19.3-138.4,39.4
		C251.7,137.3,249.7,137.7,247.7,137.7z"/>
	<path class="st0" d="M244.4,203.6c-5,0-9.9-2.7-12.5-7.4c-3.8-6.9-1.3-15.6,5.6-19.4c16.2-8.9,33.5-17,51.4-24
		c7.3-2.9,15.6,0.7,18.5,8.1c2.9,7.3-0.7,15.6-8.1,18.5c-16.8,6.6-33,14.2-48.1,22.5C249,203,246.7,203.6,244.4,203.6z"/>
	<path class="st0" d="M347.1,163.5c-6.4,0-12.2-4.3-13.8-10.8c-1.9-7.6,2.7-15.4,10.4-17.3c17.6-4.4,35.1-7.7,51.9-9.8
		c48.4-6.1,97.9-4.1,146.6,6.4c7.7,1.7,12.6,9.2,10.9,16.9c-1.7,7.7-9.2,12.6-16.9,10.9c-45.6-9.8-91.9-11.6-137.1-6
		c-15.9,2-31.8,5-48.6,9.2C349.4,163.3,348.2,163.5,347.1,163.5z"/>
	<path class="st0" d="M33.1,740.8c-7.1,0-13.3-5.3-14.1-12.6c-6.1-52.9-8.6-93.3-9.4-108.2c-0.1-2.2-0.2-4.3-0.3-6.4l-0.1-3.5
		c-0.3-7.9,5.8-14.5,13.6-14.8c7.7-0.4,14.5,5.8,14.8,13.6l0.1,3.6c0.1,2,0.2,4,0.3,6c0.8,14.6,3.2,54.3,9.2,106.3
		c0.9,7.8-4.7,14.9-12.5,15.8C34.2,740.8,33.6,740.8,33.1,740.8z"/>
	<path class="st0" d="M250.9,266.1c-4.7,0-9.3-2.3-12-6.6c-4.2-6.6-2.3-15.4,4.3-19.7c48.5-30.9,102.1-50.3,159.4-57.4
		c46.9-5.9,94.7-3,141,8.7c7.6,1.9,12.3,9.7,10.3,17.3s-9.7,12.2-17.3,10.3c-42.9-10.8-87.2-13.4-130.5-8
		c-53,6.6-102.7,24.5-147.6,53.2C256.2,265.4,253.6,266.1,250.9,266.1z"/>
	<path class="st0" d="M93.6,740.8c-6.9,0-12.9-5-14-11.9c-9.3-56.4-12.8-99.7-13.9-115.7c-2.1-31.4-2.1-63.2,0-94.5
		c0.5-7.9,7.4-13.8,15.2-13.2c7.9,0.5,13.8,7.3,13.2,15.2c-2.1,30-2.1,60.5,0,90.6c1.1,15.6,4.5,57.9,13.6,113
		c1.3,7.8-4,15.1-11.8,16.4C95.1,740.8,94.3,740.8,93.6,740.8z"/>
	<path class="st0" d="M531.5,276c-1.2,0-2.5-0.2-3.7-0.5c-11.9-3.2-24.2-5.7-36.7-7.4c-7.8-1.1-13.2-8.3-12.2-16.1
		c1.1-7.8,8.3-13.2,16.1-12.2c13.7,1.9,27.2,4.6,40.2,8.1c7.6,2,12.1,9.9,10,17.5C543.6,271.8,537.8,276,531.5,276z"/>
	<path class="st0" d="M274,319.6c-4.6,0-9-2.2-11.8-6.2c-4.4-6.5-2.7-15.4,3.8-19.8c43.4-29.5,91.8-47.8,143.8-54.3
		c8.2-1,17-1.7,27.5-2.1c7.9-0.3,14.5,5.8,14.8,13.7c0.3,7.9-5.8,14.5-13.7,14.8c-9.8,0.4-17.7,1-25.1,1.9
		c-47.5,5.9-91.7,22.6-131.3,49.6C279.5,318.8,276.7,319.6,274,319.6z"/>
	<path class="st0" d="M139.8,643.4c-7.1,0-13.2-5.3-14.1-12.5c-1.3-10.9-2.2-19.4-2.6-24.5c-3.4-39-1.8-78.1,4.5-116.2
		c1.3-7.8,8.7-13,16.4-11.7c7.8,1.3,13,8.6,11.7,16.4c-6,35.8-7.4,72.4-4.2,109c0.4,4.9,1.2,13,2.5,23.5c1,7.8-4.6,14.9-12.4,15.9
		C141,643.4,140.4,643.4,139.8,643.4z"/>
	<path class="st0" d="M156.9,740.8c-6.5,0-12.4-4.5-13.9-11.1c-3.2-14.1-6.2-28.6-8.8-43.1c-1.4-7.7,3.7-15.2,11.5-16.6
		c7.7-1.4,15.2,3.7,16.6,11.5c2.6,14,5.4,28.1,8.5,41.9c1.7,7.7-3.1,15.3-10.7,17C159,740.7,158,740.8,156.9,740.8z"/>
	<path class="st0" d="M226.9,740.8c-5.9,0-11.3-3.6-13.4-9.5c-22.7-63.5-30.5-113.2-32.8-131.6c-5.6-44.5,0.1-90.1,16.2-131.8
		c2.9-7.3,11.1-11,18.4-8.1c7.3,2.9,11,11.1,8.1,18.4c-14.5,37.3-19.5,78.1-14.5,117.9c1.7,13.6,9,63,31.4,125.6
		c2.6,7.4-1.2,15.6-8.6,18.2C230.2,740.6,228.5,740.8,226.9,740.8z"/>
	<path class="st0" d="M761.6,624.5c-1.1,0-2.1-0.1-3.2-0.4c-21.4-4.9-37.3-19.1-50.2-44.6c-11-21.7-15.6-43.8-16.5-48
		c0-0.2-0.1-0.4-0.1-0.7c-0.5-3.2-1-6.4-1.6-9.6c-1.5-7.7,3.6-15.2,11.4-16.6c7.7-1.5,15.2,3.6,16.6,11.4c0.6,3.4,1.3,6.9,1.8,10.4
		c0.7,3.3,4.7,22.2,13.9,40.3c11.4,22.6,22.7,27.7,31.2,29.7c7.7,1.8,12.4,9.4,10.7,17.1C774,620,768.1,624.5,761.6,624.5z"/>
	<path class="st0" d="M296.8,373.6c-4.3,0-8.6-2-11.4-5.7c-4.7-6.3-3.4-15.2,2.9-19.9c37.6-28.1,82.1-46,128.6-51.8
		c30.7-3.8,62-2.4,92.5,4.4c7.7,1.7,12.5,9.3,10.8,17s-9.3,12.5-17,10.8c-27.3-6.1-55.2-7.4-82.7-3.9
		c-41.7,5.2-81.5,21.2-115.1,46.4C302.8,372.7,299.8,373.6,296.8,373.6z"/>
	<path class="st0" d="M772.9,683.6c-0.2,0-0.5,0-0.7,0c-46.4-2.3-92.6-33.7-115.1-78.2c-15.3-30.2-20.9-59.3-21.9-64.8
		c-2.1-15-5.9-29.3-11.4-43c-2.9-7.3,0.7-15.6,8-18.5c7.3-2.9,15.6,0.7,18.5,8c6.3,15.8,10.7,32.3,13,49.1
		c0.4,2.5,5.4,29.2,19.2,56.4c20.7,40.9,61.7,61.1,91.1,62.6c7.9,0.4,13.9,7.1,13.5,14.9C786.7,677.7,780.4,683.6,772.9,683.6z"/>
	<path class="st0" d="M288.1,740.8c-5.7,0-11-3.4-13.3-9c-26.2-66.5-34.8-119.5-37.2-139.1c-14.7-117.5,69-225,186.4-239.7
		c21.4-2.7,43.1-2.1,64.4,1.7c7.7,1.4,12.9,8.8,11.5,16.5c-1.4,7.7-8.8,12.9-16.5,11.5c-18.5-3.3-37.3-3.8-55.8-1.5
		c-101.9,12.7-174.4,106-161.7,207.9c1.8,14.5,9.7,67,35.5,132.2c2.9,7.3-0.7,15.6-8,18.5C291.6,740.5,289.8,740.8,288.1,740.8z"/>
	<path class="st0" d="M615.1,631.7c-5.4,0-10.5-3-12.9-8.2c-17.4-37.2-23.1-70.7-23.7-74.4c-3.7-27.5-15.8-52.3-34.8-72.1
		c-5.5-5.7-5.3-14.7,0.4-20.1c5.7-5.5,14.7-5.3,20.1,0.4c23.3,24.2,38,54.6,42.5,87.7c0.2,1,5.3,32.3,21.3,66.6
		c3.3,7.1,0.3,15.6-6.9,18.9C619.1,631.2,617.1,631.7,615.1,631.7z"/>
	<path class="st0" d="M771.9,737.2c-23.4,0-47.1-6-56.7-8.7c-33.1-9.5-59.9-27.3-82.1-54.6c-5-6.1-4-15.1,2.1-20
		c6.1-5,15.1-4,20,2.1c18.3,22.6,40.5,37.4,67.8,45.1c7,2,31.6,8.5,53,7.6c8-0.3,14.5,5.8,14.8,13.6c0.3,7.9-5.8,14.5-13.6,14.8
		C775.4,737.1,773.6,737.2,771.9,737.2z"/>
	<path class="st0" d="M350.2,740.8c-5.5,0-10.7-3.2-13-8.5c-32.4-73.7-41.3-135.2-42.7-146.8c-10.8-86.1,50.6-165,136.7-175.8
		c21.8-2.7,44-0.8,65.5,5.8c7.5,2.3,11.7,10.3,9.4,17.8c-2.3,7.5-10.3,11.7-17.8,9.4c-17.7-5.4-35.8-7-53.6-4.7
		c-70.5,8.8-120.8,73.4-112,143.9c1.4,10.9,9.7,68.7,40.5,138.8c3.2,7.2-0.1,15.6-7.3,18.8C354,740.4,352.1,740.8,350.2,740.8z"/>
	<path class="st0" d="M624.1,740.8c-3.4,0-6.8-1.2-9.5-3.6c-23.2-20.7-43.4-47.6-59.8-80.1c-25.7-50.8-32.8-98.2-33.1-100.2
		c-4.7-35.7-35.2-62.5-71.1-62.5c-2.9,0-5.9,0.2-8.9,0.6c-19.5,2.4-36.8,12.6-48.6,28.6c-4.7,6.3-13.6,7.7-19.9,3
		c-6.3-4.7-7.7-13.6-3-19.9c16.5-22.3,40.7-36.5,68-39.9c4.1-0.5,8.3-0.8,12.5-0.8c50.1,0,92.8,37.5,99.3,87.1
		c0.2,1.6,6.7,44.5,30.3,91.3c15,29.7,32.5,53.2,53.3,71.7c5.9,5.2,6.4,14.2,1.2,20.1C631.9,739.2,628,740.8,624.1,740.8z"/>
	<path class="st0" d="M413.1,740.7c-5.1,0-10-2.8-12.5-7.7c-39-78-48.5-146.9-49.4-154.5c-0.4-3.4-0.7-6.9-0.7-10.5
		c-0.2-7.9,6.1-14.4,14-14.5c0.1,0,0.2,0,0.3,0c7.7,0,14.1,6.2,14.2,14c0.1,2.6,0.2,5.1,0.5,7.6c0.9,7.1,9.7,71.6,46.4,144.9
		c3.5,7,0.8,15.8-6.3,19.3C417.6,740.2,415.3,740.7,413.1,740.7z"/>
	<path class="st0" d="M478.7,740.8c-4.9,0-9.6-2.5-12.3-7c-5.7-9.6-10.6-18.5-14.8-26.9c-35.2-70.3-43.2-133-43.6-135.6
		c-2.9-23.5,13.8-44.9,37.2-47.9c23.4-2.9,44.9,13.7,47.9,37.2c0.1,0.4,7.3,52.8,36,109.5c8.7,17.2,18.6,33.3,29.5,48
		c4.7,6.3,3.4,15.2-2.9,19.9c-6.3,4.7-15.2,3.4-19.9-2.9c-11.9-16-22.7-33.5-32.1-52.1c-31-61.2-38.5-116.4-38.8-118.7
		c-1-7.9-8.2-13.6-16.1-12.5c-7.9,1-13.5,8.2-12.5,16.1c0.3,2.4,7.8,60.4,40.8,126.4c3.9,7.9,8.4,16.1,13.8,25.1
		c4,6.8,1.8,15.5-5,19.5C483.7,740.2,481.2,740.8,478.7,740.8z"/>
</g>
</svg>
