<?xml version="1.0" encoding="utf-8"?>
<!-- Generator: Adobe Illustrator 27.9.0, SVG Export Plug-In . SVG Version: 6.00 Build 0)  -->
<svg version="1.1" id="Layer_1" xmlns="http://www.w3.org/2000/svg" xmlns:xlink="http://www.w3.org/1999/xlink" x="0px" y="0px"
	 viewBox="0 0 800 800" style="enable-background:new 0 0 800 800;" xml:space="preserve">
<style type="text/css">
	.st0{fill:#E1251B;}
	.st1{fill:#101921;}
	.st2{fill:#FFFFFF;}
</style>
<g>
	<circle class="st1" cx="400" cy="400" r="390.7"/>
	<g>
		<path class="st2" d="M332.4,207.3c-3.1,0-6-1.9-7.1-5.1c-1.4-3.9,0.7-8.2,4.6-9.6c19.8-7,40.4-11.8,61.3-14.4
			c12.1-1.5,24.5-2.3,36.7-2.3c5.1,0,10.5,0.2,17,0.6c4.2,0.2,7.3,3.8,7.1,8c-0.2,4.2-3.8,7.3-8,7.1c-6.2-0.4-11.3-0.5-16.1-0.5
			c-11.6,0-23.3,0.7-34.8,2.2c-19.8,2.5-39.4,7.1-58.2,13.7C334.1,207.1,333.2,207.3,332.4,207.3z"/>
		<path class="st2" d="M320.4,244.8c-2.9,0-5.6-1.6-6.9-4.4c-1.7-3.8-0.1-8.3,3.7-10c24.6-11.3,50.8-18.7,77.7-22.1
			c25.4-3.2,51.5-2.7,77.3,1.8c4.1,0.7,6.9,4.6,6.2,8.7c-0.7,4.1-4.6,6.9-8.7,6.2c-24.4-4.2-48.9-4.7-72.9-1.7
			c-25.4,3.2-50.1,10.2-73.3,20.9C322.5,244.6,321.4,244.8,320.4,244.8z"/>
		<path class="st2" d="M318.6,279.7c-2.7,0-5.2-1.4-6.6-3.9c-2-3.7-0.7-8.2,3-10.3c8.6-4.7,17.7-9,27.2-12.7
			c3.9-1.5,8.3,0.4,9.8,4.3c1.5,3.9-0.4,8.3-4.3,9.8c-8.9,3.5-17.5,7.5-25.5,11.9C321.1,279.4,319.8,279.7,318.6,279.7z"/>
		<path class="st2" d="M373,258.5c-3.4,0-6.5-2.3-7.3-5.7c-1-4,1.5-8.1,5.5-9.1c9.3-2.3,18.6-4.1,27.5-5.2
			c25.6-3.2,51.9-2.2,77.7,3.4c4.1,0.9,6.7,4.9,5.8,9c-0.9,4.1-4.9,6.7-9,5.8c-24.2-5.2-48.7-6.2-72.6-3.2
			c-8.4,1.1-16.9,2.6-25.7,4.9C374.2,258.4,373.6,258.5,373,258.5z"/>
		<path class="st2" d="M206.7,564.3c-3.8,0-7-2.8-7.5-6.7c-3.2-28-4.6-49.4-5-57.3c-0.1-1.1-0.1-2.3-0.1-3.4l-0.1-1.8
			c-0.2-4.2,3.1-7.7,7.2-7.9c4.1-0.2,7.7,3.1,7.9,7.2l0.1,1.9c0,1.1,0.1,2.1,0.1,3.2c0.4,7.7,1.7,28.7,4.9,56.3
			c0.5,4.1-2.5,7.9-6.6,8.4C207.3,564.3,207,564.3,206.7,564.3z"/>
		<path class="st2" d="M322.1,312.8c-2.5,0-4.9-1.2-6.4-3.5c-2.2-3.5-1.2-8.2,2.3-10.4c25.7-16.4,54.1-26.6,84.4-30.4
			c24.8-3.1,50.2-1.6,74.7,4.6c4,1,6.5,5.1,5.5,9.2s-5.1,6.5-9.2,5.5c-22.8-5.7-46.2-7.1-69.2-4.2c-28.1,3.5-54.4,13-78.2,28.2
			C324.9,312.5,323.5,312.8,322.1,312.8z"/>
		<path class="st2" d="M238.7,564.3c-3.6,0-6.8-2.6-7.4-6.3c-4.9-29.9-6.8-52.8-7.3-61.3c-1.1-16.6-1.1-33.5,0-50
			c0.3-4.2,3.9-7.3,8-7c4.2,0.3,7.3,3.9,7,8c-1.1,15.9-1.1,32,0,48c0.6,8.3,2.4,30.7,7.2,59.9c0.7,4.1-2.1,8-6.2,8.7
			C239.6,564.3,239.1,564.3,238.7,564.3z"/>
		<path class="st2" d="M470.7,318.1c-0.7,0-1.3-0.1-2-0.3c-6.3-1.7-12.8-3-19.5-3.9c-4.1-0.6-7-4.4-6.4-8.5c0.6-4.1,4.4-7,8.5-6.4
			c7.2,1,14.4,2.5,21.3,4.3c4,1.1,6.4,5.2,5.3,9.3C477.1,315.8,474.1,318.1,470.7,318.1z"/>
		<path class="st2" d="M334.3,341.2c-2.4,0-4.8-1.2-6.2-3.3c-2.3-3.4-1.5-8.1,2-10.5c23-15.6,48.6-25.3,76.2-28.8
			c4.4-0.5,9-0.9,14.6-1.1c4.2-0.2,7.7,3.1,7.8,7.2c0.2,4.2-3.1,7.7-7.2,7.8c-5.2,0.2-9.4,0.5-13.3,1c-25.2,3.1-48.6,12-69.6,26.3
			C337.2,340.7,335.8,341.2,334.3,341.2z"/>
		<path class="st2" d="M263.2,512.7c-3.8,0-7-2.8-7.5-6.6c-0.7-5.8-1.1-10.3-1.4-13c-1.8-20.6-1-41.4,2.4-61.6
			c0.7-4.1,4.6-6.9,8.7-6.2c4.1,0.7,6.9,4.6,6.2,8.7c-3.2,18.9-3.9,38.4-2.2,57.8c0.2,2.6,0.6,6.9,1.3,12.5c0.5,4.1-2.4,7.9-6.6,8.4
			C263.8,512.7,263.5,512.7,263.2,512.7z"/>
		<path class="st2" d="M272.3,564.3c-3.4,0-6.6-2.4-7.4-5.9c-1.7-7.5-3.3-15.2-4.7-22.8c-0.7-4.1,2-8,6.1-8.8c4.1-0.7,8,2,8.8,6.1
			c1.4,7.4,2.9,14.9,4.5,22.2c0.9,4.1-1.6,8.1-5.7,9C273.4,564.2,272.8,564.3,272.3,564.3z"/>
		<path class="st2" d="M309.4,564.3c-3.1,0-6-1.9-7.1-5c-12-33.6-16.2-60-17.4-69.7c-2.9-23.6,0-47.7,8.6-69.8
			c1.5-3.9,5.9-5.8,9.8-4.3c3.9,1.5,5.8,5.9,4.3,9.8c-7.7,19.8-10.3,41.4-7.7,62.5c0.9,7.2,4.8,33.4,16.6,66.5
			c1.4,3.9-0.6,8.2-4.6,9.6C311.1,564.2,310.2,564.3,309.4,564.3z"/>
		<path class="st2" d="M592.6,502.7c-0.6,0-1.1-0.1-1.7-0.2c-11.3-2.6-19.8-10.1-26.6-23.6c-5.8-11.5-8.3-23.2-8.7-25.4
			c0-0.1,0-0.2-0.1-0.4c-0.3-1.7-0.6-3.4-0.9-5.1c-0.8-4.1,1.9-8,6-8.8c4.1-0.8,8,1.9,8.8,6c0.3,1.8,0.7,3.7,0.9,5.5
			c0.4,1.7,2.5,11.8,7.3,21.4c6.1,12,12,14.7,16.5,15.7c4.1,0.9,6.6,5,5.7,9.1C599.2,500.3,596,502.7,592.6,502.7z"/>
		<path class="st2" d="M346.4,369.8c-2.3,0-4.6-1-6.1-3c-2.5-3.3-1.8-8.1,1.5-10.6c19.9-14.9,43.5-24.4,68.1-27.4
			c16.3-2,32.9-1.3,49,2.3c4.1,0.9,6.6,4.9,5.7,9c-0.9,4.1-4.9,6.6-9,5.7c-14.4-3.2-29.2-3.9-43.8-2.1c-22.1,2.8-43.1,11.3-61,24.6
			C349.6,369.3,348,369.8,346.4,369.8z"/>
		<path class="st2" d="M598.6,534c-0.1,0-0.3,0-0.4,0c-24.6-1.2-49.1-17.9-61-41.4c-8.1-16-11.1-31.4-11.6-34.3
			c-1.1-7.9-3.1-15.5-6-22.8c-1.5-3.9,0.4-8.3,4.2-9.8c3.9-1.5,8.3,0.4,9.8,4.2c3.3,8.4,5.7,17.1,6.9,26c0.2,1.3,2.9,15.5,10.2,29.9
			c11,21.7,32.7,32.4,48.3,33.2c4.2,0.2,7.4,3.8,7.2,7.9C605.9,530.8,602.6,534,598.6,534z"/>
		<path class="st2" d="M341.8,564.3c-3,0-5.9-1.8-7-4.8c-13.9-35.2-18.4-63.3-19.7-73.7c-7.8-62.2,36.5-119.2,98.8-127
			c11.3-1.4,22.8-1.1,34.1,0.9c4.1,0.7,6.8,4.7,6.1,8.8c-0.7,4.1-4.7,6.8-8.8,6.1c-9.8-1.8-19.7-2-29.6-0.8
			c-54,6.7-92.4,56.1-85.6,110.1c1,7.7,5.2,35.5,18.8,70c1.5,3.9-0.4,8.3-4.3,9.8C343.6,564.1,342.7,564.3,341.8,564.3z"/>
		<path class="st2" d="M515,506.5c-2.8,0-5.6-1.6-6.8-4.4c-9.2-19.7-12.2-37.5-12.6-39.4c-2-14.5-8.3-27.7-18.4-38.2
			c-2.9-3-2.8-7.8,0.2-10.7c3-2.9,7.8-2.8,10.7,0.2c12.3,12.8,20.1,28.9,22.5,46.5c0.1,0.5,2.8,17.1,11.3,35.3
			c1.8,3.8,0.1,8.3-3.6,10C517.1,506.2,516.1,506.5,515,506.5z"/>
		<path class="st2" d="M598,562.4c-12.4,0-25-3.2-30-4.6c-17.5-5-31.8-14.5-43.5-28.9c-2.6-3.2-2.1-8,1.1-10.6
			c3.2-2.6,8-2.1,10.6,1.1c9.7,12,21.5,19.8,35.9,23.9c3.7,1.1,16.7,4.5,28.1,4c4.2-0.2,7.7,3.1,7.9,7.2c0.2,4.2-3.1,7.7-7.2,7.9
			C599.9,562.3,599,562.4,598,562.4z"/>
		<path class="st2" d="M374.7,564.3c-2.9,0-5.7-1.7-6.9-4.5c-17.2-39-21.9-71.6-22.6-77.7c-5.7-45.6,26.8-87.4,72.4-93.1
			c11.6-1.4,23.3-0.4,34.7,3.1c4,1.2,6.2,5.4,5,9.4c-1.2,4-5.5,6.2-9.4,5c-9.3-2.9-19-3.7-28.4-2.5c-37.4,4.7-64,38.9-59.3,76.3
			c0.7,5.8,5.1,36.4,21.5,73.5c1.7,3.8-0.1,8.3-3.9,9.9C376.7,564.1,375.7,564.3,374.7,564.3z"/>
		<path class="st2" d="M519.8,564.3c-1.8,0-3.6-0.6-5-1.9c-12.3-11-23-25.2-31.7-42.5c-13.6-26.9-17.4-52-17.5-53.1
			c-2.5-18.9-18.7-33.1-37.6-33.1c-1.6,0-3.2,0.1-4.7,0.3c-10.3,1.3-19.5,6.7-25.8,15.1c-2.5,3.4-7.2,4.1-10.6,1.6
			s-4.1-7.2-1.6-10.6c8.7-11.8,21.5-19.3,36-21.1c2.2-0.3,4.4-0.4,6.6-0.4c26.5,0,49.1,19.8,52.6,46.1c0.1,0.9,3.5,23.6,16.1,48.3
			c8,15.7,17.2,28.2,28.2,38c3.1,2.8,3.4,7.5,0.6,10.7C523.9,563.4,521.8,564.3,519.8,564.3z"/>
		<path class="st2" d="M408,564.2c-2.7,0-5.3-1.5-6.6-4.1c-20.7-41.3-25.7-77.8-26.2-81.8c-0.2-1.8-0.4-3.7-0.4-5.6
			c-0.1-4.2,3.2-7.6,7.4-7.7c0,0,0.1,0,0.2,0c4.1,0,7.5,3.3,7.5,7.4c0,1.4,0.1,2.7,0.3,4c0.5,3.8,5.2,37.9,24.6,76.7
			c1.9,3.7,0.4,8.4-3.3,10.2C410.4,563.9,409.2,564.2,408,564.2z"/>
		<path class="st2" d="M442.8,564.3c-2.6,0-5.1-1.3-6.5-3.7c-3-5.1-5.6-9.8-7.8-14.3c-18.6-37.3-22.9-70.4-23.1-71.8
			c-1.6-12.4,7.3-23.8,19.7-25.4c12.4-1.6,23.8,7.3,25.4,19.7c0,0.2,3.9,27.9,19,58c4.6,9.1,9.9,17.7,15.6,25.4
			c2.5,3.3,1.8,8.1-1.6,10.6c-3.3,2.5-8.1,1.8-10.6-1.6c-6.3-8.5-12-17.7-17-27.6c-16.4-32.4-20.4-61.6-20.5-62.9
			c-0.5-4.2-4.3-7.2-8.5-6.6c-4.2,0.5-7.1,4.3-6.6,8.5c0.2,1.3,4.1,32,21.6,66.9c2.1,4.2,4.5,8.5,7.3,13.3c2.1,3.6,0.9,8.2-2.6,10.3
			C445.4,564,444.1,564.3,442.8,564.3z"/>
	</g>
</g>
</svg>
